<svg xmlns="http://www.w3.org/2000/svg" xmlns:xlink="http://www.w3.org/1999/xlink" width="128" zoomAndPan="magnify" viewBox="0 0 96 95.999999" height="128" preserveAspectRatio="xMidYMid meet" version="1.2"><defs><clipPath id="8f8a9c4571"><path d="M 58 24 L 74.589844 24 L 74.589844 40 L 58 40 Z M 58 24 "/></clipPath><clipPath id="aba402b0ec"><path d="M 18 35 L 29 35 L 29 44.644531 L 18 44.644531 Z M 18 35 "/></clipPath><clipPath id="8d52c82e5b"><path d="M 10.046875 22.273438 L 38.507812 22.273438 L 38.507812 67.273438 L 10.046875 67.273438 Z M 10.046875 22.273438 "/></clipPath><clipPath id="217ceda1bc"><path d="M 22 60 L 75 60 L 75 88 L 22 88 Z M 22 60 "/></clipPath><clipPath id="a3093c5bb0"><path d="M 21.125 66.621094 L 74.539062 58.703125 L 78.167969 83.183594 L 24.753906 91.101562 Z M 21.125 66.621094 "/></clipPath><clipPath id="87fe357a4e"><path d="M 18.148438 46.535156 L 71.5625 38.617188 L 78.160156 83.132812 L 24.746094 91.050781 Z M 18.148438 46.535156 "/></clipPath></defs><g id="911d21afd4"><g clip-rule="nonzero" clip-path="url(#8f8a9c4571)"><path style=" stroke:none;fill-rule:evenodd;fill:#dbb2ff;fill-opacity:1;" d="M 73.519531 28.792969 C 71.554688 24.824219 66.113281 22.898438 62.332031 24.863281 C 60.632812 25.730469 59.574219 27.054688 58.894531 29.058594 C 57.875 32.003906 58.628906 34.6875 61.199219 37.332031 C 63.582031 39.828125 64.523438 40.207031 67.625 39.902344 C 71.554688 39.523438 72.726562 38.65625 73.746094 35.367188 C 74.539062 32.796875 74.464844 30.71875 73.519531 28.792969 Z M 71.480469 35.707031 C 70.457031 37.484375 69.589844 37.824219 66.792969 37.597656 C 64.789062 37.410156 63.277344 36.125 62.371094 33.742188 C 61.765625 32.230469 61.765625 32.003906 62.410156 30.378906 C 63.542969 27.394531 66.375 26.410156 69.363281 27.960938 C 72.535156 29.546875 73.332031 32.570312 71.480469 35.707031 Z M 71.480469 35.707031 "/></g><g clip-rule="nonzero" clip-path="url(#aba402b0ec)"><path style=" stroke:none;fill-rule:evenodd;fill:#dbb2ff;fill-opacity:1;" d="M 27.929688 39.167969 C 27.136719 37.011719 26.039062 36.03125 23.773438 35.539062 C 20.257812 34.746094 18.332031 36.296875 18.332031 39.886719 C 18.332031 42.910156 20.636719 44.648438 24.679688 44.648438 C 26.003906 44.648438 26.53125 44.421875 27.4375 43.550781 C 28.648438 42.304688 28.761719 41.433594 27.929688 39.167969 Z M 23.28125 40.867188 C 22.148438 40.867188 21.582031 40.1875 22.109375 39.355469 C 22.5625 38.601562 24.378906 39.207031 24.378906 40.113281 C 24.378906 40.679688 24.113281 40.867188 23.28125 40.867188 Z M 23.28125 40.867188 "/></g><path style=" stroke:none;fill-rule:nonzero;fill:#8fc6ff;fill-opacity:1;" d="M 65.546875 47.238281 C 56.824219 47.488281 53.980469 36.585938 54.273438 34.144531 C 54.226562 29.8125 57.289062 26.527344 60.53125 24.664062 C 63.789062 23.15625 68.054688 22.15625 74.089844 25.972656 C 81.851562 35.449219 78.273438 45.949219 65.546875 47.238281 Z M 80.417969 9.835938 C 78.371094 10.089844 76.417969 10.234375 74.539062 10.859375 C 73.125 11.324219 72.300781 12.886719 73.484375 13.789062 C 74.609375 14.652344 76.3125 14.933594 77.664062 14.480469 C 78.308594 14.183594 81.71875 13.453125 80.847656 14.378906 C 78.605469 16.429688 73.824219 20.902344 72.320312 20.148438 C 67.148438 18.84375 62.953125 20.417969 58.523438 21.902344 C 46.175781 29.21875 48.152344 42.117188 58.273438 49.496094 C 63.453125 51.898438 67.117188 51.601562 71.816406 50.25 C 81.835938 45.308594 85.617188 35.160156 78.339844 25.667969 C 76.78125 23.707031 76.496094 23.160156 78.480469 21.566406 C 81.183594 19.292969 81.855469 18.085938 84.507812 16.480469 C 84.765625 18.269531 84.765625 18.722656 84.765625 20.316406 C 84.765625 22.363281 85.695312 24.300781 87.066406 24.40625 C 88.882812 24.070312 88.855469 20.316406 88.855469 17.503906 C 87.988281 7.796875 91.15625 8.558594 80.417969 9.835938 "/><g clip-rule="nonzero" clip-path="url(#8d52c82e5b)"><path style=" stroke:none;fill-rule:nonzero;fill:#fea5d5;fill-opacity:1;" d="M 26.703125 46.878906 C 25.699219 47.308594 23.761719 47.0625 22.6875 46.855469 C 18.128906 45.976562 13.574219 43.828125 13.777344 38.902344 C 12.992188 34.273438 15.640625 29.152344 19.8125 26.839844 C 28.851562 24.503906 32.242188 29.820312 32.996094 30.574219 C 38.035156 36.113281 32.613281 44.359375 26.703125 46.878906 Z M 25.214844 22.429688 C 11.585938 23.027344 10.6875 31.839844 10.101562 37.25 C 9.695312 40.976562 11.585938 45.460938 14.894531 47.589844 C 15.566406 48.257812 17.546875 49.433594 19.792969 50.039062 C 20.679688 50.277344 22.097656 50.457031 22.214844 51.367188 C 22.371094 52.582031 22.296875 54.421875 22.449219 55.617188 C 22.542969 56.324219 21.980469 57.191406 21.269531 57.273438 C 20.113281 57.40625 18.121094 57.339844 17.253906 57.980469 C 16.144531 58.804688 15.984375 60.128906 17.949219 60.988281 C 19.5 61.472656 22.921875 60.34375 22.6875 62.230469 C 22.6875 69.082031 26.035156 68.828125 26.230469 62.230469 C 26.3125 59.597656 31.929688 62.121094 32.371094 59.632812 C 32.84375 57.507812 29.234375 56.929688 27.8125 56.816406 C 25.679688 57.117188 26.347656 54.777344 25.972656 53.417969 C 25.757812 49.476562 26.9375 50.1875 30.246094 49.003906 C 36.621094 44.753906 37.421875 41.464844 38.507812 35.765625 C 38.371094 29.097656 32.492188 21.050781 25.214844 22.429688 "/></g><g clip-rule="nonzero" clip-path="url(#217ceda1bc)"><g clip-rule="nonzero" clip-path="url(#a3093c5bb0)"><g clip-rule="nonzero" clip-path="url(#87fe357a4e)"><path style=" stroke:none;fill-rule:nonzero;fill:#dbb2ff;fill-opacity:1;" d="M 70.8125 60.597656 C 69.359375 60.8125 68.195312 62.003906 68.074219 63.53125 C 67.648438 68.871094 66.46875 72.503906 64.53125 74.433594 C 64.472656 74.492188 64.417969 74.554688 64.363281 74.617188 C 62.421875 76.871094 58.347656 78.804688 52.144531 80.417969 L 52.140625 80.417969 C 51.5 80.550781 50.859375 80.664062 50.226562 80.757812 C 45.652344 81.4375 41.355469 81.085938 37.339844 79.710938 C 37.328125 79.707031 37.320312 79.707031 37.3125 79.703125 C 33.257812 78.351562 30.429688 76.117188 28.828125 73.007812 C 28.179688 71.746094 26.816406 71.09375 25.488281 71.292969 C 25.148438 71.339844 24.808594 71.449219 24.484375 71.613281 C 22.902344 72.429688 22.277344 74.375 23.09375 75.957031 C 25.496094 80.628906 29.558594 83.914062 35.273438 85.820312 C 40.273438 87.53125 45.566406 87.972656 51.15625 87.140625 C 51.945312 87.027344 52.738281 86.882812 53.539062 86.714844 C 53.585938 86.707031 53.636719 86.695312 53.683594 86.679688 C 61.160156 84.746094 66.316406 82.160156 69.164062 78.921875 L 69.164062 78.925781 C 72.179688 75.863281 73.957031 70.90625 74.503906 64.042969 C 74.644531 62.265625 73.320312 60.714844 71.542969 60.574219 C 71.292969 60.550781 71.050781 60.5625 70.8125 60.597656 Z M 70.8125 60.597656 "/></g></g></g></g></svg>